Run_30002
nRows=4
nColumns=164

# SIMM Motion File Header:
name Run_30002
datacolumns 164
datarows 4
otherdata 1
range 3.61000000 3.64000000
endheader
time	pelvis_tilt	pelvis_list	pelvis_rotation	pelvis_tx	pelvis_ty	pelvis_tz	hip_flexion_r	hip_adduction_r	hip_rotation_r	knee_angle_r	ankle_angle_r	hip_flexion_l	hip_adduction_l	hip_rotation_l	knee_angle_l	ankle_angle_l	lumbar_extension	lumbar_bending	lumbar_rotation	arm_flex_r	arm_add_r	arm_rot_r	elbow_flex_r	pro_sup_r	arm_flex_l	arm_add_l	arm_rot_l	elbow_flex_l	pro_sup_l	subtalar_angle_r	mtp_angle_r	subtalar_angle_l	mtp_angle_l	wrist_flex_r	wrist_dev_r	wrist_flex_l	wrist_dev_l	LASI_tx	LASI_ty	LASI_tz	RASI_tx	RASI_ty	RASI_tz	LPSI_tx	LPSI_ty	LPSI_tz	RPSI_tx	RPSI_ty	RPSI_tz	RTH1_tx	RTH1_ty	RTH1_tz	RTH2_tx	RTH2_ty	RTH2_tz	RTH3_tx	RTH3_ty	RTH3_tz	LTH1_tx	LTH1_ty	LTH1_tz	LTH2_tx	LTH2_ty	LTH2_tz	LTH3_tx	LTH3_ty	LTH3_tz	RTB1_tx	RTB1_ty	RTB1_tz	RTB2_tx	RTB2_ty	RTB2_tz	RTB3_tx	RTB3_ty	RTB3_tz	LTB1_tx	LTB1_ty	LTB1_tz	LTB2_tx	LTB2_ty	LTB2_tz	LTB3_tx	LTB3_ty	LTB3_tz	RCAL_tx	RCAL_ty	RCAL_tz	RTOE_tx	RTOE_ty	RTOE_tz	RMT5_tx	RMT5_ty	RMT5_tz	LCAL_tx	LCAL_ty	LCAL_tz	LTOE_tx	LTOE_ty	LTOE_tz	LMT5_tx	LMT5_ty	LMT5_tz	LACR_tx	LACR_ty	LACR_tz	RACR_tx	RACR_ty	RACR_tz	CLAV_tx	CLAV_ty	CLAV_tz	C7_tx	C7_ty	C7_tz	RUA1_tx	RUA1_ty	RUA1_tz	RUA2_tx	RUA2_ty	RUA2_tz	RUA3_tx	RUA3_ty	RUA3_tz	RLEL_tx	RLEL_ty	RLEL_tz	RMEL_tx	RMEL_ty	RMEL_tz	LUA1_tx	LUA1_ty	LUA1_tz	LUA2_tx	LUA2_ty	LUA2_tz	LUA3_tx	LUA3_ty	LUA3_tz	LLEL_tx	LLEL_ty	LLEL_tz	LMEL_tx	LMEL_ty	LMEL_tz	RFAsuperior_tx	RFAsuperior_ty	RFAsuperior_tz	RFAradius_tx	RFAradius_ty	RFAradius_tz	RFAulna_tx	RFAulna_ty	RFAulna_tz	LFAsuperior_tx	LFAsuperior_ty	LFAsuperior_tz	LFAradius_tx	LFAradius_ty	LFAradius_tz	LFAulna_tx	LFAulna_ty	LFAulna_tz
      3.61000000	    -13.44574868	      0.35385069	      0.79345420	      0.95726007	      1.02686952	     -0.33966688	      1.42940761	      3.64068461	     -0.04292416	    -18.13046159	      0.31880761	     47.43830790	      1.33747398	     -3.01886704	    -67.64827073	      7.30858419	     -0.50511921	      0.97942364	     12.42763972	    -13.02181800	    -21.21357726	     -8.31115891	    115.85916379	    111.73059432	    -44.04908493	    -16.03863547	     -5.11073691	    112.54927904	    101.69295721	      0.00000000	      0.00000000	      0.00000000	      0.00000000	      0.00000000	      0.00000000	      0.00000000	      0.00000000	      0.97036849	      1.06591919	     -0.47026795	      0.97900127	      1.06656041	     -0.21076532	      0.81478285	      1.13225502	     -0.39478736	      0.81883477	      1.12462012	     -0.28273035	      0.88288052	      0.94113788	     -0.17057433	      0.79662169	      0.80998467	     -0.19197249	      0.80154804	      0.65357452	     -0.21019821	      0.93799871	      0.95184500	     -0.52231447	      0.94189041	      0.79179639	     -0.48453452	      1.05575829	      0.70190835	     -0.48353209	      0.75964306	      0.39817206	     -0.28893256	      0.67039282	      0.38979063	     -0.22030358	      0.64591431	      0.24674199	     -0.30711891	      1.10895731	      0.49163331	     -0.42854250	      0.97307555	      0.44381042	     -0.46512567	      0.97508087	      0.31910933	     -0.41339324	      0.47684789	      0.18846786	     -0.30164065	      0.67606236	      0.06857688	     -0.34961894	      0.62769976	      0.05699375	     -0.25235948	      0.80106206	      0.25979676	     -0.36817552	      1.00505169	      0.14168418	     -0.39982560	      0.93006792	      0.12888425	     -0.48174660	      0.94262603	      1.56057157	     -0.48645683	      1.01699551	      1.53092180	     -0.17305865	      1.04507016	      1.50048829	     -0.31376628	      0.91828702	      1.57114569	     -0.32095845	      0.93751327	      1.42271504	     -0.09013317	      0.98997010	      1.36464017	     -0.08265355	      0.94631625	      1.28024380	     -0.03032414	      0.93035024	      1.21607528	     -0.00158388	      0.90927265	      1.19395177	     -0.08749497	      0.81555043	      1.50471362	     -0.51543459	      0.81247797	      1.42800779	     -0.55673686	      0.71893195	      1.39690869	     -0.56561000	      0.67435725	      1.34416591	     -0.58241375	      0.66906200	      1.32404018	     -0.49449016	      1.02996896	      1.19164554	     -0.04018236	      1.14527278	      1.21098124	     -0.17820281	      1.15706409	      1.15767556	     -0.13532503	      0.71746227	      1.27058771	     -0.58873943	      0.88595142	      1.20480767	     -0.53081714	      0.84958425	      1.15062543	     -0.56156280
      3.62000000	    -13.61965612	      0.71021101	      1.21568864	      0.95930711	      1.03343083	     -0.33964388	     -0.65366368	      3.11899459	     -0.80408317	    -16.40570211	     -4.61236018	     47.07415608	      1.88746070	     -3.63441317	    -61.94883206	      7.56167505	     -0.22408555	      0.28457681	     12.29615832	    -12.98369981	    -20.98528499	     -7.78376806	    118.54858723	    112.60975542	    -45.52009232	    -16.10818097	     -6.16847496	    114.10394196	    101.60013049	      0.00000000	      0.00000000	      0.00000000	      0.00000000	      0.00000000	      0.00000000	      0.00000000	      0.00000000	      0.97198131	      1.07313082	     -0.47032680	      0.98208557	      1.07303090	     -0.21022170	      0.81665670	      1.13942396	     -0.39394086	      0.82175226	      1.13113976	     -0.28171546	      0.88401757	      0.94712534	     -0.17111042	      0.79340594	      0.81867177	     -0.19038509	      0.79181841	      0.66315716	     -0.20921476	      0.93746905	      0.95962149	     -0.52356316	      0.94115517	      0.79894736	     -0.48193975	      1.05422814	      0.70875633	     -0.48055665	      0.74266696	      0.40794098	     -0.28605836	      0.65246236	      0.40094625	     -0.21850471	      0.62890000	      0.25674317	     -0.30448560	      1.11670629	      0.49703427	     -0.42711973	      0.98527781	      0.43770937	     -0.46263182	      0.99913525	      0.31329419	     -0.41111944	      0.46142280	      0.20493089	     -0.29988596	      0.64962587	      0.06884958	     -0.34917199	      0.60080217	      0.06013281	     -0.25224966	      0.83166400	      0.23810284	     -0.36301048	      1.04546014	      0.13937073	     -0.39924670	      0.97011048	      0.12006636	     -0.47936926	      0.94333163	      1.56784826	     -0.48695880	      1.01918998	      1.53786160	     -0.17543823	      1.04587715	      1.50710594	     -0.31581946	      0.91938849	      1.57760670	     -0.32163703	      0.94093696	      1.43058882	     -0.09097342	      0.99362004	      1.37240875	     -0.08432212	      0.95034375	      1.28853745	     -0.03088311	      0.93497669	      1.22391778	     -0.00256201	      0.91217572	      1.20179803	     -0.08809474	      0.81544804	      1.51433665	     -0.51521298	      0.81087183	      1.43782549	     -0.55616071	      0.71633269	      1.40918821	     -0.56324184	      0.67089801	      1.35673047	     -0.57975875	      0.66670896	      1.33579012	     -0.49200337	      1.03413652	      1.20402155	     -0.04395016	      1.14498019	      1.23003500	     -0.18423079	      1.16019042	      1.17697255	     -0.14209852	      0.71406448	      1.28351586	     -0.58712351	      0.88333832	      1.21787896	     -0.53166979	      0.84680731	      1.16355238	     -0.56192730
      3.63000000	    -13.74486457	      0.91945526	      1.65984988	      0.96111150	      1.03943931	     -0.33986073	     -2.46281580	      2.77452692	     -1.59165342	    -15.16887574	     -9.19269676	     46.39846784	      2.48713051	     -4.03275260	    -55.86461627	      7.58802319	     -0.03783091	     -0.20798468	     12.11804143	    -13.06329851	    -20.87108680	     -7.31675380	    121.10687901	    113.43257112	    -46.76928033	    -16.05404575	     -7.20101779	    115.48254353	    101.57098488	      0.00000000	      0.00000000	      0.00000000	      0.00000000	      0.00000000	      0.00000000	      0.00000000	      0.00000000	      0.97287173	      1.07957788	     -0.47030204	      0.98491099	      1.07883491	     -0.20999081	      0.81829438	      1.14563549	     -0.39321269	      0.82441634	      1.13701299	     -0.28100716	      0.88534910	      0.95295159	     -0.17119558	      0.79134915	      0.82693696	     -0.18873315	      0.78377291	      0.67247799	     -0.20854279	      0.93685118	      0.96622759	     -0.52507420	      0.93902449	      0.80464845	     -0.47930435	      1.05121363	      0.71359963	     -0.47747868	      0.72759180	      0.41780895	     -0.28347926	      0.63649528	      0.41225551	     -0.21677178	      0.61340880	      0.26684591	     -0.30170065	      1.12312155	      0.50107805	     -0.42494601	      0.99766998	      0.43036451	     -0.46041678	      1.02269382	      0.30774422	     -0.40861011	      0.44781021	      0.22186397	     -0.29791539	      0.62408716	      0.07014857	     -0.34878604	      0.57506691	      0.06480991	     -0.25155071	      0.86286006	      0.21749738	     -0.35899427	      1.08478209	      0.13892114	     -0.39675791	      1.01068159	      0.11257976	     -0.47591548	      0.94413765	      1.57428720	     -0.48750020	      1.02134831	      1.54404513	     -0.17765815	      1.04676665	      1.51300971	     -0.31768668	      0.92059733	      1.58340510	     -0.32226887	      0.94395134	      1.43776852	     -0.09187636	      0.99676664	      1.37950353	     -0.08573412	      0.95375899	      1.29640742	     -0.03101519	      0.93877294	      1.23130599	     -0.00315061	      0.91441720	      1.20908755	     -0.08831703	      0.81555419	      1.52308624	     -0.51479047	      0.80941172	      1.44694670	     -0.55561644	      0.71418392	      1.42025551	     -0.56082554	      0.66810730	      1.36785347	     -0.57705697	      0.66499903	      1.34608526	     -0.48954965	      1.03716386	      1.21564859	     -0.04729955	      1.14360102	      1.24729222	     -0.18920804	      1.16206235	      1.19460105	     -0.14794096	      0.71134783	      1.29508572	     -0.58553366	      0.88147441	      1.22962369	     -0.53263652	      0.84478040	      1.17522055	     -0.56250092
      3.64000000	    -13.78388814	      0.95914199	      2.13344563	      0.96272554	      1.04479450	     -0.34050808	     -4.03806994	      2.61847413	     -2.36769781	    -14.44521007	    -13.21122578	     45.37664656	      3.14538074	     -4.09081683	    -49.43564786	      7.26616189	      0.04018547	     -0.44335654	     11.89307153	    -13.25603112	    -20.90766154	     -6.89011808	    123.40703587	    114.14024257	    -47.76988889	    -15.87654173	     -8.15336206	    116.66407670	    101.55888914	      0.00000000	      0.00000000	      0.00000000	      0.00000000	      0.00000000	      0.00000000	      0.00000000	      0.00000000	      0.97300099	      1.08504302	     -0.47035827	      0.98746913	      1.08384411	     -0.21012022	      0.81964098	      1.15068726	     -0.39275934	      0.82681871	      1.14209594	     -0.28065836	      0.88703541	      0.95843599	     -0.17088506	      0.79023599	      0.83466873	     -0.18763533	      0.77733263	      0.68121435	     -0.20822532	      0.93633771	      0.97130231	     -0.52671042	      0.93575245	      0.80872731	     -0.47708996	      1.04695010	      0.71624259	     -0.47483248	      0.71463216	      0.42737980	     -0.28148292	      0.62277201	      0.42343023	     -0.21530048	      0.59929114	      0.27699850	     -0.29908016	      1.12823725	      0.50385509	     -0.42235918	      1.01003712	      0.42226019	     -0.45858925	      1.04534997	      0.30262944	     -0.40592382	      0.43597827	      0.23916778	     -0.29548955	      0.59949919	      0.07283609	     -0.34812210	      0.55085032	      0.07113669	     -0.25031715	      0.89409842	      0.19834883	     -0.35636656	      1.12246464	      0.14025558	     -0.39202622	      1.05149397	      0.10639437	     -0.47119369	      0.94488555	      1.57973696	     -0.48805160	      1.02335903	      1.54944628	     -0.17955546	      1.04769264	      1.51804249	     -0.31938441	      0.92185746	      1.58835677	     -0.32284769	      0.94650059	      1.44415990	     -0.09275381	      0.99935878	      1.38576834	     -0.08685801	      0.95660862	      1.30351150	     -0.03083189	      0.94183198	      1.23796133	     -0.00334323	      0.91606803	      1.21560373	     -0.08819069	      0.81575109	      1.53090344	     -0.51410322	      0.80804279	      1.45514500	     -0.55507674	      0.71241977	      1.42974886	     -0.55858634	      0.66585540	      1.37725299	     -0.57440478	      0.66383368	      1.35476286	     -0.48712590	      1.03919562	      1.22604387	     -0.05003298	      1.14142177	      1.26211920	     -0.19328668	      1.16294047	      1.20980766	     -0.15302216	      0.70915457	      1.30501110	     -0.58397471	      0.88029269	      1.23994148	     -0.53378688	      0.84346603	      1.18546610	     -0.56334097
